{"asset":{"version":"2.0","generator":"babylon.js glTF exporter for Autodesk MAYA 2022 v20211115.1"},"scene":0,"scenes":[{"nodes":[0,1,2,3]}],"nodes":[{"mesh":0,"translation":[-2.220446E-18,0.07559149,-2.220446E-18],"scale":[3.380795,0.356244177,3.380795],"name":"pCube1","extras":{"currentUVSet":"map1"}},{"mesh":1,"translation":[0.0,0.058245372,0.0],"rotation":[0.0,0.0,-1.0,6.123234E-17],"scale":[3.380795,3.11298037,3.380795],"name":"pCube3","extras":{"currentUVSet":"map1"}},{"translation":[-0.103721969,0.141241327,-0.103445411],"rotation":[-0.5856178,-0.6213941,0.177342519,0.4893576],"name":"directionalLight1"},{"translation":[0.05885929,0.132298648,0.07420317],"rotation":[0.294656724,0.5397738,0.651798248,0.4438251],"name":"directionalLight2"}],"meshes":[{"primitives":[{"attributes":{"POSITION":1,"TANGENT":2,"NORMAL":3,"TEXCOORD_0":4},"indices":0,"material":0}],"name":"pCube1"},{"primitives":[{"attributes":{"POSITION":6,"TANGENT":7,"NORMAL":8,"TEXCOORD_0":9},"indices":5,"material":1}],"name":"pCube3"}],"accessors":[{"bufferView":0,"componentType":5123,"count":36,"type":"SCALAR","name":"accessorIndices"},{"bufferView":1,"componentType":5126,"count":24,"max":[0.005,0.005,0.005],"min":[-0.005,-0.005,-0.005],"type":"VEC3","name":"accessorPositions"},{"bufferView":2,"componentType":5126,"count":24,"type":"VEC4","name":"accessorTangents"},{"bufferView":1,"byteOffset":288,"componentType":5126,"count":24,"type":"VEC3","name":"accessorNormals"},{"bufferView":3,"componentType":5126,"count":24,"type":"VEC2","name":"accessorUVs"},{"bufferView":0,"byteOffset":72,"componentType":5123,"count":36,"type":"SCALAR","name":"accessorIndices"},{"bufferView":1,"byteOffset":576,"componentType":5126,"count":24,"max":[0.005,0.005,0.005],"min":[-0.005,-0.005,-0.005],"type":"VEC3","name":"accessorPositions"},{"bufferView":2,"byteOffset":384,"componentType":5126,"count":24,"type":"VEC4","name":"accessorTangents"},{"bufferView":1,"byteOffset":864,"componentType":5126,"count":24,"type":"VEC3","name":"accessorNormals"},{"bufferView":3,"byteOffset":192,"componentType":5126,"count":24,"type":"VEC2","name":"accessorUVs"}],"bufferViews":[{"buffer":0,"byteLength":144,"name":"bufferViewScalar"},{"buffer":0,"byteOffset":144,"byteLength":1152,"byteStride":12,"name":"bufferViewFloatVec3"},{"buffer":0,"byteOffset":1296,"byteLength":768,"byteStride":16,"name":"bufferViewFloatVec4"},{"buffer":0,"byteOffset":2064,"byteLength":384,"byteStride":8,"name":"bufferViewFloatVec2"}],"buffers":[{"uri":"aaaa.bin","byteLength":2448}],"materials":[{"pbrMetallicRoughness":{"baseColorFactor":[0.128799587,0.177938521,0.06530343,1.0],"metallicFactor":0.0,"roughnessFactor":0.2},"name":"aiStandardSurface4"},{"pbrMetallicRoughness":{"baseColorFactor":[0.10910663,0.09851962,0.08379964,1.0],"metallicFactor":0.0,"roughnessFactor":0.2},"name":"aiStandardSurface5"}]}